<svg width="25" height="25" viewBox="0 0 25 25" fill="none" xmlns="http://www.w3.org/2000/svg">
<path fill-rule="evenodd" clip-rule="evenodd" d="M12.6172 6.09517C9.00223 6.09517 6.07173 9.02567 6.07173 12.6406C6.07173 16.2556 9.00223 19.1861 12.6172 19.1861C16.2321 19.1861 19.1626 16.2556 19.1626 12.6406C19.1626 9.02567 16.2321 6.09517 12.6172 6.09517ZM4.61719 12.6406C4.61719 8.22235 8.19891 4.64062 12.6172 4.64062C17.0355 4.64062 20.6172 8.22235 20.6172 12.6406C20.6172 17.0589 17.0355 20.6406 12.6172 20.6406C8.19891 20.6406 4.61719 17.0589 4.61719 12.6406Z" fill="white"/>
<path fill-rule="evenodd" clip-rule="evenodd" d="M12.6172 11.6406C13.1695 11.6406 13.6172 12.0137 13.6172 12.474V15.8073C13.6172 16.2675 13.1695 16.6406 12.6172 16.6406C12.0649 16.6406 11.6172 16.2675 11.6172 15.8073V12.474C11.6172 12.0137 12.0649 11.6406 12.6172 11.6406Z" fill="white"/>
<path fill-rule="evenodd" clip-rule="evenodd" d="M11.6172 9.64062C11.6172 9.08834 12.0627 8.64062 12.6122 8.64062H12.6222C13.1717 8.64062 13.6172 9.08834 13.6172 9.64062C13.6172 10.1929 13.1717 10.6406 12.6222 10.6406H12.6122C12.0627 10.6406 11.6172 10.1929 11.6172 9.64062Z" fill="white"/>
</svg>
